<?xml version="1.0" encoding="UTF-8"?>
<svg width="180" height="60" viewBox="0 0 180 60" fill="none" xmlns="http://www.w3.org/2000/svg">
  <path d="M30 10C18.954 10 10 18.954 10 30C10 41.046 18.954 50 30 50C41.046 50 50 41.046 50 30C50 18.954 41.046 10 30 10Z" fill="#E67E22"/>
  <path d="M30 15C21.716 15 15 21.716 15 30C15 38.284 21.716 45 30 45C38.284 45 45 38.284 45 30C45 21.716 38.284 15 30 15ZM30 40C24.477 40 20 35.523 20 30C20 24.477 24.477 20 30 20C35.523 20 40 24.477 40 30C40 35.523 35.523 40 30 40Z" fill="#D4AF37"/>
  <path d="M65 20H70L80 40H75L73 35H62L60 40H55L65 20ZM71 30L67.5 22L64 30H71Z" fill="#FFFFFF"/>
  <path d="M85 20H90L95 32L100 20H105L95 45H90L92.5 38L85 20Z" fill="#FFFFFF"/>
  <path d="M110 20H115L125 40H120L118 35H107L105 40H100L110 20ZM116 30L112.5 22L109 30H116Z" fill="#FFFFFF"/>
  <path d="M130 20H135V35H145V40H130V20Z" fill="#FFFFFF"/>
  <path d="M150 20H165V25H155V27.5H162.5V32.5H155V35H165V40H150V20Z" fill="#E67E22"/>
  <path d="M170 20H175V40H170V20Z" fill="#E67E22"/>
</svg>
